<svg width="38" height="19" viewBox="0 0 38 19" fill="none" xmlns="http://www.w3.org/2000/svg">
<path d="M2.40861 6.1398L2.47141 6.19526L6.66668 10.39L8.86194 8.19526C9.10226 7.95494 9.48042 7.93645 9.74194 8.1398L9.80475 8.19526L12.6667 11.0567L13.5286 10.1953C13.9303 9.79355 14.6048 10.0482 14.6627 10.5909L14.6667 10.6667L14.6655 13.3729L14.6595 13.4313L14.6429 13.5106L14.6267 13.5611L14.6042 13.6155L14.5693 13.6805L14.5247 13.7447L14.4714 13.8048C14.4478 13.8283 14.4229 13.8498 14.3969 13.8691L14.3227 13.9169L14.2476 13.9525L14.1773 13.9761L14.099 13.9927L14.0595 13.9974L14 14H11.3333C10.7652 14 10.4684 13.343 10.8112 12.9183L10.8619 12.8619L11.7233 12L9.33334 9.61L7.13808 11.8047C6.89776 12.0451 6.51961 12.0635 6.25808 11.8602L6.19527 11.8047L1.52861 7.13807C1.26826 6.87772 1.26826 6.45561 1.52861 6.19526C1.76893 5.95494 2.14708 5.93645 2.40861 6.1398Z" fill="#ED0F48"/>
<path d="M26.228 11.036C26.228 10.4207 26.1023 9.88767 25.851 9.437C25.6083 8.98633 25.279 8.63533 24.863 8.384C24.4557 8.13267 24.0007 8.007 23.498 8.007C23.2467 8.007 22.9997 8.033 22.757 8.085C22.5143 8.137 22.2803 8.21933 22.055 8.332L22.627 6.252H26.15V4.9H21.47L20.235 9.905C20.547 9.71433 20.833 9.567 21.093 9.463C21.3617 9.359 21.6217 9.28967 21.873 9.255C22.1243 9.21167 22.3843 9.19 22.653 9.19C23.0083 9.19 23.329 9.25933 23.615 9.398C23.9097 9.53667 24.1437 9.736 24.317 9.996C24.499 10.256 24.59 10.5723 24.59 10.945C24.59 11.309 24.512 11.6253 24.356 11.894C24.2087 12.154 23.9877 12.3577 23.693 12.505C23.407 12.6437 23.0603 12.713 22.653 12.713C22.367 12.713 22.081 12.6567 21.795 12.544C21.509 12.4227 21.2403 12.2667 20.989 12.076C20.7463 11.8767 20.534 11.66 20.352 11.426L19.455 12.531C19.689 12.8257 19.962 13.0943 20.274 13.337C20.5947 13.5797 20.9673 13.7747 21.392 13.922C21.8167 14.0693 22.3063 14.143 22.861 14.143C23.303 14.143 23.7233 14.0823 24.122 13.961C24.5293 13.831 24.889 13.636 25.201 13.376C25.5217 13.116 25.773 12.791 25.955 12.401C26.137 12.011 26.228 11.556 26.228 11.036ZM27.1341 6.928C27.1341 7.33533 27.2295 7.708 27.4201 8.046C27.6108 8.37533 27.8708 8.63967 28.2001 8.839C28.5381 9.03833 28.9238 9.138 29.3571 9.138C29.7905 9.138 30.1718 9.03833 30.5011 8.839C30.8391 8.63967 31.0991 8.37533 31.2811 8.046C31.4718 7.708 31.5671 7.33533 31.5671 6.928C31.5671 6.52067 31.4718 6.15233 31.2811 5.823C31.0991 5.485 30.8391 5.21633 30.5011 5.017C30.1718 4.81767 29.7905 4.718 29.3571 4.718C28.9238 4.718 28.5381 4.81767 28.2001 5.017C27.8708 5.21633 27.6108 5.485 27.4201 5.823C27.2295 6.15233 27.1341 6.52067 27.1341 6.928ZM28.3301 6.928C28.3301 6.72867 28.3735 6.551 28.4601 6.395C28.5468 6.23033 28.6638 6.10033 28.8111 6.005C28.9671 5.901 29.1491 5.849 29.3571 5.849C29.5651 5.849 29.7428 5.901 29.8901 6.005C30.0461 6.10033 30.1631 6.23033 30.2411 6.395C30.3191 6.551 30.3581 6.72867 30.3581 6.928C30.3581 7.11867 30.3191 7.30067 30.2411 7.474C30.1631 7.63867 30.0461 7.773 29.8901 7.877C29.7428 7.97233 29.5651 8.02 29.3571 8.02C29.1491 8.02 28.9671 7.97233 28.8111 7.877C28.6638 7.773 28.5468 7.63867 28.4601 7.474C28.3735 7.30067 28.3301 7.11867 28.3301 6.928ZM32.5681 11.972C32.5681 12.3793 32.6591 12.752 32.8411 13.09C33.0318 13.4193 33.2918 13.6837 33.6211 13.883C33.9591 14.0823 34.3448 14.182 34.7781 14.182C35.2115 14.182 35.5928 14.0823 35.9221 13.883C36.2601 13.6837 36.5201 13.4193 36.7021 13.09C36.8928 12.752 36.9881 12.3793 36.9881 11.972C36.9881 11.5647 36.8928 11.1963 36.7021 10.867C36.5201 10.529 36.2601 10.2603 35.9221 10.061C35.5928 9.86167 35.2115 9.762 34.7781 9.762C34.3448 9.762 33.9591 9.86167 33.6211 10.061C33.2918 10.2603 33.0318 10.529 32.8411 10.867C32.6591 11.1963 32.5681 11.5647 32.5681 11.972ZM33.7641 11.972C33.7641 11.7727 33.8031 11.5907 33.8811 11.426C33.9678 11.2613 34.0848 11.1313 34.2321 11.036C34.3881 10.932 34.5701 10.88 34.7781 10.88C34.9861 10.88 35.1638 10.932 35.3111 11.036C35.4671 11.1313 35.5841 11.2613 35.6621 11.426C35.7488 11.5907 35.7921 11.7727 35.7921 11.972C35.7921 12.1627 35.7488 12.3403 35.6621 12.505C35.5841 12.6697 35.4671 12.804 35.3111 12.908C35.1638 13.0033 34.9861 13.051 34.7781 13.051C34.5701 13.051 34.3881 13.0033 34.2321 12.908C34.0848 12.804 33.9678 12.6697 33.8811 12.505C33.8031 12.3403 33.7641 12.1627 33.7641 11.972ZM34.5181 4.9L28.2131 14H29.6041L35.9221 4.9H34.5181Z" fill="#ED0F48"/>
</svg>
